<svg width="16" height="16" viewBox="0 0 16 16" fill="none" xmlns="http://www.w3.org/2000/svg">
<rect width="16" height="16" fill="black"/>
<path d="M1.6065 12.908C1.52584 12.908 1.41217 12.897 1.2655 12.875C1.11884 12.8603 0.986837 12.8163 0.869504 12.743C0.752171 12.6697 0.693504 12.5597 0.693504 12.413C0.693504 12.3323 0.715504 12.259 0.759504 12.193C0.796171 12.1563 0.829171 12.1343 0.858504 12.127C0.880504 12.127 0.887837 12.1453 0.880504 12.182C0.851171 12.292 0.887837 12.3947 0.990504 12.49C1.08584 12.5927 1.18484 12.6587 1.2875 12.688C1.40484 12.7173 1.5295 12.732 1.6615 12.732C1.96217 12.732 2.23717 12.655 2.4865 12.501C2.73584 12.3543 2.9595 12.1637 3.1575 11.929C3.36284 11.7017 3.54617 11.4707 3.7075 11.236C4.0815 10.686 4.41884 10.1213 4.7195 9.542C5.02017 8.95533 5.3245 8.37233 5.6325 7.793C5.9405 7.21367 6.28517 6.65633 6.6665 6.121C6.79117 5.945 6.94517 5.747 7.1285 5.527C7.31184 5.29967 7.5135 5.08333 7.7335 4.878C7.9535 4.67267 8.18084 4.51133 8.4155 4.394C8.32017 4.394 8.2395 4.39033 8.1735 4.383C8.1075 4.37567 7.9975 4.36833 7.8435 4.361C7.5575 4.339 7.2275 4.328 6.8535 4.328C6.64817 4.328 6.4465 4.33167 6.2485 4.339C6.05784 4.339 5.87817 4.34633 5.7095 4.361C5.10817 4.39767 4.50684 4.51133 3.9055 4.702C3.3115 4.89267 2.80184 5.18233 2.3765 5.571C2.12717 5.79833 1.92184 6.055 1.7605 6.341C1.59917 6.627 1.5185 6.90933 1.5185 7.188C1.5185 7.50333 1.60284 7.73067 1.7715 7.87C1.9475 8.002 2.15284 8.068 2.3875 8.068C2.57084 8.068 2.75417 8.035 2.9375 7.969C3.29684 7.84433 3.59017 7.62433 3.8175 7.309C4.05217 6.98633 4.15484 6.627 4.1255 6.231C4.11817 6.165 4.1035 6.099 4.0815 6.033C4.0595 5.967 4.03017 5.923 3.9935 5.901C3.96417 5.879 3.9495 5.857 3.9495 5.835C3.95684 5.813 3.97884 5.802 4.0155 5.802C4.17684 5.81667 4.28684 5.90833 4.3455 6.077C4.4115 6.23833 4.4445 6.39233 4.4445 6.539C4.4445 6.76633 4.38584 6.98633 4.2685 7.199C4.15117 7.40433 3.99717 7.58767 3.8065 7.749C3.62317 7.903 3.42517 8.02033 3.2125 8.101C2.98517 8.189 2.74317 8.233 2.4865 8.233C2.14917 8.233 1.85217 8.13767 1.5955 7.947C1.34617 7.75633 1.2215 7.44467 1.2215 7.012C1.2215 6.68933 1.2985 6.385 1.4525 6.099C1.61384 5.813 1.80817 5.55633 2.0355 5.329C2.52684 4.845 3.09517 4.515 3.7405 4.339C4.39317 4.163 5.05684 4.075 5.7315 4.075C6.2595 4.075 6.7875 4.10433 7.3155 4.163C7.8435 4.21433 8.36784 4.24 8.8885 4.24H9.1745C9.21117 4.24733 9.24417 4.262 9.2735 4.284C9.31017 4.29867 9.32117 4.32433 9.3065 4.361C9.3065 4.405 9.28084 4.427 9.2295 4.427C9.12684 4.427 9.04617 4.44167 8.9875 4.471C8.8335 4.52233 8.7015 4.61767 8.5915 4.757C8.4815 4.889 8.37517 5.05033 8.2725 5.241C8.13317 5.49033 8.04884 5.78367 8.0195 6.121C7.9975 6.451 7.98284 6.75533 7.9755 7.034C7.96817 7.42267 7.9535 7.826 7.9315 8.244C7.91684 8.662 7.8545 9.07267 7.7445 9.476C7.66384 9.79133 7.54284 10.0883 7.3815 10.367C7.2275 10.6457 7.02584 10.8987 6.7765 11.126C6.96717 11.0527 7.15784 10.9133 7.3485 10.708C7.53917 10.5027 7.71884 10.279 7.8875 10.037C8.0635 9.795 8.2065 9.58967 8.3165 9.421C8.63184 8.937 8.96184 8.40533 9.3065 7.826C9.6585 7.24667 10.0252 6.67467 10.4065 6.11C10.7878 5.538 11.1838 5.032 11.5945 4.592C11.9538 4.20333 12.3058 3.921 12.6505 3.745C13.0025 3.569 13.3215 3.481 13.6075 3.481C13.8568 3.481 14.0732 3.54333 14.2565 3.668C14.4398 3.78533 14.5682 3.954 14.6415 4.174C14.6415 4.18133 14.6415 4.18867 14.6415 4.196C14.6488 4.196 14.6525 4.19967 14.6525 4.207C14.6525 4.25833 14.6268 4.28767 14.5755 4.295C14.5242 4.30233 14.4912 4.295 14.4765 4.273C14.4105 3.97233 14.2198 3.822 13.9045 3.822C13.6992 3.822 13.4462 3.90267 13.1455 4.064C12.8448 4.22533 12.5038 4.48933 12.1225 4.856C11.7265 5.23733 11.3342 5.68833 10.9455 6.209C10.5568 6.72967 10.1755 7.265 9.8015 7.815C9.43484 8.365 9.06817 8.882 8.7015 9.366C8.5695 9.542 8.40084 9.75467 8.1955 10.004C7.9975 10.2533 7.7775 10.5027 7.5355 10.752C7.2935 10.994 7.04784 11.1957 6.7985 11.357C6.54917 11.511 6.31084 11.5807 6.0835 11.566C6.0395 11.566 6.01384 11.5513 6.0065 11.522C6.0065 11.4927 6.02484 11.467 6.0615 11.445C6.31084 11.269 6.5125 11.0343 6.6665 10.741C6.8205 10.4477 6.94517 10.1287 7.0405 9.784C7.16517 9.30733 7.24584 8.82333 7.2825 8.332C7.3265 7.84067 7.3815 7.34933 7.4475 6.858C7.48417 6.63067 7.52817 6.39233 7.5795 6.143C7.63817 5.88633 7.72617 5.65533 7.8435 5.45C7.93884 5.28133 8.07084 5.098 8.2395 4.9C8.40817 4.702 8.59517 4.559 8.8005 4.471C8.67584 4.44167 8.53284 4.48567 8.3715 4.603C8.2175 4.72033 8.0635 4.87433 7.9095 5.065C7.7555 5.24833 7.61617 5.428 7.4915 5.604C7.37417 5.78 7.28984 5.90833 7.2385 5.989C6.8865 6.54633 6.56384 7.12933 6.2705 7.738C5.9845 8.34667 5.69117 8.948 5.3905 9.542C5.08984 10.136 4.7415 10.697 4.3455 11.225C4.13284 11.511 3.89084 11.7823 3.6195 12.039C3.34817 12.303 3.0585 12.5083 2.7505 12.655C2.56717 12.7503 2.3765 12.8163 2.1785 12.853C1.98784 12.8897 1.79717 12.908 1.6065 12.908ZM10.5275 12.061C10.2488 12.061 10.0252 11.973 9.8565 11.797C9.69517 11.621 9.6145 11.3607 9.6145 11.016C9.62184 10.6713 9.6805 10.3157 9.7905 9.949C9.90784 9.58233 10.0545 9.21933 10.2305 8.86C10.4138 8.49333 10.6008 8.145 10.7915 7.815C11.2242 7.07433 11.6568 6.418 12.0895 5.846C12.5295 5.274 12.8852 4.79367 13.1565 4.405C13.1785 4.36833 13.2188 4.35367 13.2775 4.361C13.3362 4.361 13.3508 4.37933 13.3215 4.416C13.0282 4.79733 12.7312 5.26667 12.4305 5.824C12.1372 6.374 11.8328 6.968 11.5175 7.606C11.4662 7.716 11.3855 7.89567 11.2755 8.145C11.1728 8.387 11.0592 8.66567 10.9345 8.981C10.8172 9.29633 10.7035 9.61167 10.5935 9.927C10.4835 10.235 10.3992 10.51 10.3405 10.752C10.3185 10.8473 10.3002 10.939 10.2855 11.027C10.2708 11.1077 10.2635 11.1883 10.2635 11.269C10.2635 11.445 10.3002 11.5843 10.3735 11.687C10.4542 11.797 10.5752 11.852 10.7365 11.852C10.9052 11.852 11.0848 11.7713 11.2755 11.61C11.4662 11.456 11.6532 11.2653 11.8365 11.038C11.9978 10.8473 12.1445 10.6457 12.2765 10.433C12.4158 10.2203 12.5295 10.0297 12.6175 9.861C12.6542 9.817 12.6798 9.795 12.6945 9.795C12.7165 9.795 12.7275 9.81333 12.7275 9.85C12.7275 9.894 12.7128 9.94533 12.6835 10.004C12.5955 10.1727 12.4782 10.3707 12.3315 10.598C12.1848 10.818 12.0198 11.0307 11.8365 11.236C11.6312 11.4633 11.4148 11.6577 11.1875 11.819C10.9602 11.9803 10.7402 12.061 10.5275 12.061Z" fill="#F7B4DB"/>
</svg>
